<?xml version="1.0" encoding="UTF-8" standalone="no"?>
<svg
   viewBox="0 0 210.4 210.4"
   width="2500"
   height="2500"
   version="1.1"
   id="svg2"
   sodipodi:docname="Unreal.svg"
   inkscape:version="1.4 (86a8ad7, 2024-10-11)"
   xmlns:inkscape="http://www.inkscape.org/namespaces/inkscape"
   xmlns:sodipodi="http://sodipodi.sourceforge.net/DTD/sodipodi-0.dtd"
   xmlns="http://www.w3.org/2000/svg"
   xmlns:svg="http://www.w3.org/2000/svg">
  <defs
     id="defs2" />
  <sodipodi:namedview
     id="namedview2"
     pagecolor="#ffffff"
     bordercolor="#000000"
     borderopacity="0.25"
     inkscape:showpageshadow="2"
     inkscape:pageopacity="0.0"
     inkscape:pagecheckerboard="0"
     inkscape:deskcolor="#d1d1d1"
     inkscape:zoom="0.3092"
     inkscape:cx="1248.3829"
     inkscape:cy="1250"
     inkscape:window-width="1920"
     inkscape:window-height="991"
     inkscape:window-x="-9"
     inkscape:window-y="-9"
     inkscape:window-maximized="1"
     inkscape:current-layer="svg2" />
  <path
     d="M105.2 5c55.3 0 100.2 45 100.2 100.2s-45 100.2-100.2 100.2S5 160.5 5 105.2 50 5 105.2 5m0-5C47.1 0 0 47.1 0 105.2s47.1 105.2 105.2 105.2 105.2-47.1 105.2-105.2S163.4 0 105.2 0z"
     id="path1"
     style="fill:#ffffff" />
  <path
     d="M97.9 42.2s-23.7 6.7-45 29.3-24 38.7-24 50.7c4.7-8 33.7-52.1 40.5-31.1v50.2s-.4 6.8-10.8 4.1c3.1 5.8 19.1 20.1 48 23 6.6-6.6 15.2-16.1 15.2-16.1l14.4 12.2s25.9-16.8 36.1-41.2c-9.5 6.2-21 20.6-27 10.5V72.7s15.4-23.1 17.8-24.2c-6.1 1.1-27.6 8.2-38.9 22.8-3.2-3.5-12.1-3.6-12.1-3.6s7 5.8 7.1 11.1 0 49.5 0 54.6c-4.8 4.9-9.9 7.5-13.2 7.5-7.7 0-9.9-2.7-12-5.4V71.3s-3.8 3.2-6.8-2S84.1 54 97.9 42.2z"
     id="path2"
     style="fill:#ffffff" />
</svg>
